# xmcd
#
# Track frame offsets:
# 182
# 14365
# 27257
# 39885
# 52017
# 66815
# 80745
# 97935
# 113257
# 129260
# 144380
# 157937
# 176352
# 192905
#
# Disc length: 2715 seconds
#
#
# Revision: 5
# Processed by: cddbd v1.5.2PL0 Copyright (c) Steve Scherf et al.
# Submitted via: FreeRIP 2.951 
#
DISCID=a40a990e
DTITLE=Various Artist - Acervo Especial Sertanejo
DYEAR=1994
DGENRE=Sonata
TTITLE0=Saudade Da Minha Terra - Belmonte and Amaraí
TTITLE1=João De Barro - Sérgio Reis
TTITLE2=Pingo D'água - Raul Torres and Florêncio
TTITLE3=Não Beba Mais Não - Duo Ciriema
TTITLE4=Boneca Cobiçada - Palmeira and Biá
TTITLE5=Chalana - Mário Zan
TTITLE6=Mágoa De Boiadeiro - Pedro Bento and Zé Da Estrada
TTITLE7=O Menino Da Porteira - Luizinho and Limeira
TTITLE8=Flor Do Cafezal - Cascatinha and Inhana
TTITLE9=Viola Cabloca - Tonico and Tinoco
TTITLE10=Não Me Abandones - Irmãs Galvão
TTITLE11=Romaria - Renato Teixeira
TTITLE12=Rio De Lágrimas - Tavares and Zé Negrão
TTITLE13=Marvada Pinga - Inezita Barroso
EXTD=
EXTT0=
EXTT1=
EXTT2=
EXTT3=
EXTT4=
EXTT5=
EXTT6=
EXTT7=
EXTT8=
EXTT9=
EXTT10=
EXTT11=
EXTT12=
EXTT13=
PLAYORDER=
